<svg width="147" height="147" viewBox="0 0 147 147" fill="none" xmlns="http://www.w3.org/2000/svg">
<g clip-path="url(#clip0_296_378)">
<circle cx="73.5" cy="73.5" r="73.5" fill="#109837"/>
<path d="M108 115.55V47.3652C108 47.2166 107.956 47.0825 107.916 46.9483C107.905 46.9121 107.909 46.8686 107.895 46.8323C107.815 46.6293 107.687 46.4517 107.527 46.3066L91.5908 30.4133C91.4563 30.2792 91.2963 30.174 91.1181 30.1015C90.8491 29.9927 90.5618 29.9891 90.2818 30.0435C90.2055 30.0326 90.1364 30 90.0564 30H39.4544C38.6508 30 38 30.6489 38 31.4501V115.55C38 116.351 38.6508 117 39.4544 117H106.542C107.346 117 107.997 116.351 107.997 115.55L108 115.55ZM92.0123 34.9448L103.033 45.9332H92.0123V34.9448ZM40.9086 114.1V32.9002H89.0998V47.3801C89.0998 48.1813 89.7506 48.8302 90.5542 48.8302H105.087V114.096L40.9086 114.1Z" fill="white"/>
<path d="M60.5569 55.3914L54.8053 60.7693L51.443 57.6255C50.885 57.1037 49.98 57.1037 49.4185 57.6255C48.8605 58.1472 48.8605 58.9934 49.4185 59.5184L53.793 63.6087C54.0613 63.8595 54.4261 64 54.8053 64C55.1845 64 55.5493 63.8595 55.8176 63.6087L62.5815 57.2843C63.1395 56.7625 63.1395 55.9163 62.5815 55.3913C62.0235 54.8696 61.1184 54.8697 60.5569 55.3914Z" fill="white"/>
<path d="M95.5654 58H70.4346C69.642 58 69 58.6713 69 59.5C69 60.3287 69.642 61 70.4346 61H95.5654C96.358 61 97 60.3287 97 59.5C97 58.6713 96.358 58 95.5654 58Z" fill="white"/>
<path d="M95.5654 76H70.4346C69.642 76 69 76.6713 69 77.5C69 78.3287 69.642 79 70.4346 79H95.5654C96.358 79 97 78.3287 97 77.5C97 76.6713 96.358 76 95.5654 76Z" fill="white"/>
<path d="M95.5654 94H70.4346C69.642 94 69 94.6713 69 95.5C69 96.3287 69.642 97 70.4346 97H95.5654C96.358 97 97 96.3287 97 95.5C97 94.6713 96.358 94 95.5654 94Z" fill="white"/>
<path d="M60.5569 72.4349L54.8053 78.4103L51.443 74.9172C50.885 74.3375 49.98 74.3375 49.4185 74.9172C48.8605 75.4969 48.8605 76.4371 49.4185 77.0205L53.793 81.5652C54.0613 81.8439 54.4261 82 54.8053 82C55.1845 82 55.5493 81.8439 55.8176 81.5652L62.5815 74.5381C63.1395 73.9584 63.1395 73.0181 62.5815 72.4348C62.0235 71.8551 61.1184 71.8552 60.5569 72.4349Z" fill="white"/>
<path d="M60.5569 90.4349L54.8053 96.4103L51.443 92.9172C50.885 92.3375 49.98 92.3375 49.4185 92.9172C48.8605 93.4969 48.8605 94.4371 49.4185 95.0205L53.793 99.5652C54.0613 99.8439 54.4261 100 54.8053 100C55.1845 100 55.5493 99.8439 55.8176 99.5652L62.5815 92.5381C63.1395 91.9584 63.1395 91.0181 62.5815 90.4348C62.0235 89.8551 61.1184 89.8552 60.5569 90.4349Z" fill="white"/>
</g>
<defs>
<clipPath id="clip0_296_378">
<rect width="147" height="147" fill="white"/>
</clipPath>
</defs>
</svg>
