<svg width="147" height="147" viewBox="0 0 147 147" fill="none" xmlns="http://www.w3.org/2000/svg">
<g clip-path="url(#clip0_296_365)">
<circle cx="73.5" cy="73.5" r="73.5" fill="#109837"/>
<path d="M109.355 37.645C99.9136 28.2036 87.355 23 74 23C60.645 23 48.086 28.2031 38.645 37.645C29.2036 47.0903 24 59.645 24 73C24 86.355 29.2031 98.91 38.645 108.355C48.0903 117.8 60.645 123 74 123C87.355 123 99.91 117.797 109.355 108.355C118.8 98.9097 124 86.355 124 73C124 59.645 118.797 47.09 109.355 37.645ZM74 119.875C48.152 119.875 27.125 98.848 27.125 73C27.125 47.152 48.152 26.125 74 26.125C99.848 26.125 120.875 47.152 120.875 73C120.875 98.848 99.848 119.875 74 119.875Z" fill="white"/>
<path d="M100.5 53.172C98.1798 50.6212 94.2189 50.4337 91.672 52.7501L62.938 78.8711L57.4849 69.7852C55.7115 66.8321 51.8677 65.8711 48.9107 67.6407C45.9576 69.4141 44.9966 73.2579 46.7662 76.2149L56.1412 91.8399C57.1099 93.4493 58.7271 94.5352 60.5904 94.8087C60.8912 94.8556 61.1998 94.8751 61.5006 94.8751C63.0592 94.8751 64.5514 94.297 65.7037 93.2501L100.079 62.0001C101.313 60.8751 102.036 59.3399 102.118 57.672C102.196 56.004 101.621 54.4064 100.5 53.172ZM97.9767 59.6876L63.6017 90.9376C63.0236 91.461 62.2814 91.7501 61.5001 91.7501C61.3478 91.7501 61.1954 91.7383 61.047 91.7188C60.1173 91.5821 59.3048 91.0391 58.8204 90.2344L49.4454 74.6094C48.5587 73.1328 49.0391 71.211 50.5157 70.3203C51.0157 70.0195 51.5704 69.875 52.1212 69.875C53.1837 69.875 54.2228 70.4141 54.8087 71.3906L61.2423 82.1136C61.4845 82.5159 61.8907 82.7855 62.3517 82.8558C62.8126 82.9261 63.2814 82.7816 63.6329 82.4652L93.7779 55.0592C95.0513 53.903 97.0357 53.9967 98.192 55.2701C98.7545 55.8873 99.0396 56.6842 99.0006 57.5201C98.9615 58.3521 98.5982 59.1217 97.9811 59.6842L97.9767 59.6876Z" fill="white"/>
<path d="M74 32.375C51.602 32.375 33.375 50.602 33.375 73C33.375 95.398 51.602 113.625 74 113.625C96.398 113.625 114.625 95.398 114.625 73C114.625 50.602 96.398 32.375 74 32.375ZM74 110.5C53.32 110.5 36.5 93.68 36.5 73C36.5 52.32 53.32 35.5 74 35.5C94.68 35.5 111.5 52.32 111.5 73C111.5 93.68 94.68 110.5 74 110.5Z" fill="white"/>
</g>
<defs>
<clipPath id="clip0_296_365">
<rect width="147" height="147" fill="white"/>
</clipPath>
</defs>
</svg>
