<svg width="147" height="147" viewBox="0 0 147 147" fill="none" xmlns="http://www.w3.org/2000/svg">
<g clip-path="url(#clip0_296_372)">
<circle cx="73.5" cy="73.5" r="73.5" fill="#109837"/>
<path d="M49.7007 44.6398C48.8145 44.6398 48.0664 45.2899 47.9372 46.1627L47.4384 49.7163C47.3717 50.1839 47.4963 50.6604 47.7858 51.039C48.0708 51.4175 48.4938 51.6624 48.9659 51.7247C49.9367 51.8628 50.8362 51.1859 50.9743 50.2151L51.2504 48.2024H98.6766L95.7287 69.4303L95.083 74.066C95.0786 74.0883 95.0741 74.115 95.0696 74.1417L92.7585 90.7025L69.6427 90.698C68.8011 86.1025 64.7532 82.5844 59.9305 82.5844C55.1033 82.5844 51.0688 86.0979 50.2316 90.698H45.3332L45.9388 86.3473H45.9343C46.0679 85.3765 45.3866 84.4815 44.4114 84.3479C43.4451 84.2187 42.55 84.8912 42.412 85.8619L41.5169 92.2254C41.4412 92.7375 41.597 93.2541 41.9355 93.6459C42.2739 94.0378 42.7637 94.2605 43.2803 94.2605H50.2273C51.0734 98.8516 55.1034 102.361 59.9261 102.361C64.7489 102.361 68.7878 98.8517 69.6339 94.2605H101.554C102.4 98.8516 106.448 102.361 111.266 102.361C116.089 102.361 120.119 98.8517 120.965 94.2605H125.708C126.598 94.2605 127.346 93.6059 127.471 92.7241L129.983 74.6665C130.023 74.386 129.996 74.0965 129.903 73.8249L123.619 55.7718V55.7763C123.37 55.0593 122.693 54.5784 121.936 54.5784H101.39L102.49 46.6652C102.561 46.1531 102.405 45.6409 102.067 45.2535C101.733 44.8616 101.243 44.639 100.731 44.639L49.7007 44.6398ZM41.734 54.4723V54.4767C41.262 54.4767 40.8078 54.6638 40.4737 55.0022C40.1442 55.3362 39.9572 55.7904 39.9572 56.2625C39.9616 57.2422 40.7543 58.0348 41.734 58.0348H54.9375H54.933C55.9127 58.0348 56.7054 57.2422 56.7098 56.2625C56.7098 55.7905 56.5228 55.3362 56.1932 55.0022C55.8593 54.6638 55.405 54.4767 54.933 54.4767L41.734 54.4723ZM100.902 58.1417H120.674L125.707 72.6323H98.8812L100.902 58.1417ZM29.5406 66.2553C28.5609 66.2598 27.7682 67.0524 27.7682 68.0321C27.7638 69.0163 28.5564 69.8178 29.5406 69.8178H53.289C53.7611 69.8223 54.2197 69.6352 54.5538 69.2968C54.8922 68.9628 55.0792 68.5086 55.0748 68.0321C55.0748 67.5601 54.8877 67.1058 54.5493 66.7718C54.2153 66.4378 53.7611 66.2508 53.289 66.2553L29.5406 66.2553ZM98.3863 76.1948H126.174L124.161 90.699H120.973C120.135 86.1034 116.101 82.5854 111.274 82.5854C106.446 82.5854 102.403 86.0989 101.561 90.699H96.3691L98.3863 76.1948ZM17.7894 78.025C17.313 78.0206 16.8587 78.2076 16.5203 78.546C16.1863 78.88 15.9993 79.3343 15.9993 79.8108C15.9993 80.2828 16.1908 80.737 16.5247 81.071C16.8632 81.4006 17.3129 81.5876 17.7895 81.5876H51.6463C52.6305 81.5876 53.432 80.7949 53.4365 79.8108C53.4365 79.3388 53.2494 78.8801 52.9154 78.5461C52.577 78.2076 52.1228 78.0206 51.6463 78.0251L17.7894 78.025ZM59.7642 86.1475H59.929C63.4291 86.1475 66.2391 88.9574 66.2391 92.471C66.2391 95.9889 63.4293 98.7945 59.929 98.7945C56.4289 98.7945 53.6279 95.9846 53.6279 92.471C53.6279 89.0109 56.3398 86.2321 59.7642 86.1475ZM111.109 86.1475H111.273C114.774 86.1475 117.57 88.9574 117.57 92.471C117.57 95.9889 114.774 98.7945 111.273 98.7945C107.773 98.7945 104.963 95.9846 104.963 92.471C104.963 89.0109 107.684 86.2321 111.109 86.1475Z" fill="white"/>
</g>
<defs>
<clipPath id="clip0_296_372">
<rect width="147" height="147" fill="white"/>
</clipPath>
</defs>
</svg>
