<svg width="100" height="103" viewBox="0 0 100 103" fill="none" xmlns="http://www.w3.org/2000/svg">
<path d="M91.441 89.9053H79.441V10.9443C79.441 8.36622 77.3394 6.27242 74.7691 6.27242L66.8902 6.27632C66.7418 6.03804 66.5699 5.81538 66.3394 5.62788C65.73 5.10835 64.9488 4.90913 64.1597 5.03804L57.1011 6.27634H25.6211C23.043 6.27634 20.9492 8.37794 20.9492 10.9482V89.9092H8.94922C8.41797 89.9092 8 90.3389 8 90.8585C8 91.3897 8.42969 91.8077 8.94922 91.8077H27.0902L64.1682 98.3194C64.3284 98.3506 64.4885 98.3584 64.6487 98.3584C65.2698 98.3584 65.8596 98.1397 66.3479 97.7295C66.969 97.21 67.2971 96.4912 67.2971 95.6787V91.8076H91.4381C91.9694 91.8076 92.3873 91.3779 92.3873 90.8584C92.3912 90.335 91.9616 89.9053 91.442 89.9053L91.441 89.9053ZM77.531 10.9443V89.9053H74.1716V12.4833C74.1716 11.9521 73.7419 11.5341 73.2224 11.5341H67.3005V8.1747H74.7693C76.2927 8.1747 77.531 9.41312 77.531 10.9443ZM22.851 10.9443C22.851 9.41312 24.0893 8.17482 25.6205 8.17482H46.2495L26.9995 11.5537C26.5386 11.6318 26.2104 12.0342 26.2104 12.4951V89.9171H22.851L22.851 10.9443ZM65.39 95.6863C65.39 95.9246 65.3002 96.116 65.1205 96.2762C64.9291 96.4363 64.7298 96.4871 64.4916 96.448L28.1126 90.0691V13.2841L64.4916 6.90524C64.7298 6.86617 64.933 6.91696 65.1205 7.07712C65.3119 7.23728 65.39 7.41696 65.39 7.66696V95.6863ZM67.3002 13.4443H72.269V89.9133H67.3002V13.4443ZM57.5307 47.7253C55.351 47.7253 53.5815 49.4948 53.5815 51.6745C53.5815 53.8542 55.351 55.6237 57.5307 55.6237C59.7104 55.6237 61.4916 53.8542 61.4916 51.6745C61.4916 49.4948 59.7104 47.7253 57.5307 47.7253ZM57.5307 53.7253C56.4018 53.7253 55.4799 52.8034 55.4799 51.6745C55.4799 50.5456 56.4018 49.6237 57.5307 49.6237C58.6596 49.6237 59.5815 50.5456 59.5815 51.6745C59.5815 52.8034 58.6596 53.7253 57.5307 53.7253Z" fill="black"/>
</svg>
